<?xml version="1.0" encoding="UTF-8"?>
<svg version="1.1" viewBox="0 0 256 256" xmlns="http://www.w3.org/2000/svg">
<path d="m55 0c-30 0-55 25-55 55v35.6c0 14.4 5.78 27.5 15 37.4-9.27 9.88-15 23.1-15 37.4v35.6c0 30 25 55 55 55h35.6c14.4 0 27.5-5.78 37.4-15 9.88 9.27 23.1 15 37.4 15h35.6c30 0 55-25 55-55v-35.6c0-14.4-5.78-27.5-15-37.4 9.27-9.88 15-23.1 15-37.4v-35.6c0-30-25-55-55-55h-35.6c-14.4 0-27.5 5.78-37.4 15-9.88-9.27-23.1-15-37.4-15z" color="#000000" fill="#00332c" style="-inkscape-stroke:none;paint-order:stroke markers fill"/>
<g transform="translate(8.55 9.97)" fill="#ffa8ba" stroke-linecap="round" stroke-linejoin="round" stroke-width="45" style="paint-order:stroke markers fill">
<path d="m157 128h35.5c15.1 0 27.3 12.2 27.3 27.3v35.5c0 15.1-12.2 27.3-27.3 27.3h-35.5c-15.1 0-27.3-12.2-27.3-27.3v-35.5c0-15.1 12.2-27.3 27.3-27.3z" color="#000000" style="-inkscape-stroke:none;paint-order:stroke markers fill"/>
<path d="m46.7 128h35.5c15.1 0 27.3 12.2 27.3 27.3v35.5c0 15.1-12.2 27.3-27.3 27.3h-35.5c-15.1 0-27.3-12.2-27.3-27.3v-35.5c0-15.1 12.2-27.3 27.3-27.3z" color="#000000" style="-inkscape-stroke:none;paint-order:stroke markers fill"/>
<path d="m157 18h35.5c15.1 0 27.3 12.2 27.3 27.3v35.5c0 15.1-12.2 27.3-27.3 27.3h-35.5c-15.1 0-27.3-12.2-27.3-27.3v-35.5c0-15.1 12.2-27.3 27.3-27.3z" color="#000000" style="-inkscape-stroke:none;paint-order:stroke markers fill"/>
<path d="m46.7 18h35.5c15.1 0 27.3 12.2 27.3 27.3v35.5c0 15.1-12.2 27.3-27.3 27.3h-35.5c-15.1 0-27.3-12.2-27.3-27.3v-35.5c0-15.1 12.2-27.3 27.3-27.3z" color="#000000" style="-inkscape-stroke:none;paint-order:stroke markers fill"/>
</g>
<circle transform="translate(8.55 9.97)" cx="189" cy="47.5" r="22.5" fill="#ececec" style="paint-order:stroke markers fill"/>
</svg>
