<?xml version="1.0" encoding="UTF-8"?>
<svg version="1.1" viewBox="0 0 256 256" xmlns="http://www.w3.org/2000/svg">
<g transform="matrix(.868 -.497 .501 .861 -60.5 85.2)" fill="#cedad7">
<path d="m144 28.7c-10.1-0.0236-19.7 4.12-26.8 11.5-12.3-1.79-20.4 2.94-26.1 17.3-8.97 4.7-15.3 14.8-15.4 25-0.0252 2.98 2.79 5.41 6.21 5.42l124 0.345c3.28 0.0091 6.09-2.41 5.92-5.39-0.529-9.76 1-22.5-17.7-23.8-2.1-16.8-25.2-17.7-29.5-17.4-7.12-7.45-10.5-13-20.6-13z" stroke-width="2"/>
<path d="m76.5 105 21.3 109c0.644 3.29 3.52 5.65 6.86 5.65l9.84-0.0118c3.1-3e-3 5.53-2.66 5.28-5.75l-9.06-109c-0.271-3.25-2.98-5.74-6.23-5.74l-23.4 0.0274c-2.98 0.0035-5.22 2.73-4.65 5.66zm46.1 0.0551-0.195 29.7c-0.0209 3.18 1.87 4.01 4.44 2.14 3.31-2.4 6.97-4.45 10.8-5.54 3.05-0.866 8.3-0.883 11.4-0.128 4.12 1.01 8.05 3.03 11.5 5.56 2.57 1.86 4.43 1.1 4.45-2.09l0.182-29.7c0.0194-3.18-2.55-5.76-5.72-5.76l-31.1 0.0364c-3.18 0.0037-5.77 2.58-5.79 5.77zm54.2-0.0813-8.65 109c-0.246 3.1 2.2 5.74 5.3 5.74l9.41-0.0109c3.34-4e-3 7.98-2.38 8.55-5.68l18.8-109c0.554-2.94-1.7-5.66-4.69-5.66l-22.5 0.0262c-3.25 0.0038-5.95 2.51-6.21 5.75zm-20.2 70.6c-2.46 1.53-5.06 2.91-7.73 3.79-3.01 0.987-8.3 0.972-11.3-0.142-2.38-0.897-4.7-2.23-6.92-3.65-2.68-1.71-4.61-0.606-4.38 2.57l2.53 35.6c0.231 3.24 2.92 5.75 6.17 5.74l17.1-0.02c3.24-4e-3 5.94-2.51 6.18-5.76l2.65-35.6c0.236-3.17-1.65-4.21-4.35-2.52z" stroke-width=".971"/>
<path d="m159 156a15 15.2 63 0 1-15.2 15.1 15 15.2 63 0 1-15-14.9 15 15.2 63 0 1 15.2-15.1 15 15.2 63 0 1 15 14.9z" stroke-width=".67"/>
</g>
</svg>
