<?xml version="1.0" encoding="UTF-8"?>
<svg version="1.1" viewBox="0 0 256 256" xmlns="http://www.w3.org/2000/svg">
<path transform="matrix(-.953 0 0 .952 250 3.64)" d="m233 191c-8.26 30.7-46.8 44.9-105 44.9-57.8 0-95.9-12.4-105-44.9s46.8-68.1 105-68.1c57.8 0 114 34.2 105 68.1z" fill="#ffa8ba" stroke="#00332c" stroke-linecap="round" stroke-linejoin="round" stroke-width="57.8" style="paint-order:stroke fill markers"/>
<path transform="matrix(-.953 0 0 .952 250 3.64)" d="m184 80.5c0 30.6-24.9 55.4-55.6 55.4-30.7 0-55.6-24.8-55.6-55.4 0-30.6 24.9-55.4 55.6-55.4 23.8 3e-6 44.2 14.9 52.1 35.9 2.28 6.06 3.53 12.6 3.53 19.5z" fill="#ffa8ba" stroke="#00332c" stroke-linecap="round" stroke-linejoin="round" stroke-width="57.8" style="paint-order:stroke fill markers"/>
<ellipse transform="matrix(.953 0 0 .952 250 3.64)" cx="-110" cy="59.2" rx="21" ry="21" fill="#ececec" style="paint-order:normal"/>
</svg>
